<svg width="800" height="800" xmlns="http://www.w3.org/2000/svg" xmlns:xlink="http://www.w3.org/1999/xlink" xml:space="preserve" version="1.0">
 <g>
  <title>Layer 1</title>
  <g opacity="0.95" id="svg_1">
   <defs transform="translate(0, 102.361) translate(-20.9432) translate(0, -2.79918) translate(-5.68434e-14) translate(-0.5272)" fill="#ffffff">
    <rect fill="#ffffff" height="407.01" width="1129.28" y="97.32" x="-143.26" id="SVGID_1_"/>
   </defs>
   <clipPath transform="translate(0, 102.361) translate(-20.9432) translate(0, -2.79918) translate(-5.68434e-14) translate(-0.5272)" fill="#ffffff" id="SVGID_2_">
    <use x="-21.47042" y="99.56166" fill="#ffffff" id="svg_2" xlink:href="#SVGID_1_"/>
   </clipPath>
   <g id="svg_3" clip-path="url(#SVGID_2_)" class="st0">
    <g id="svg_4">
     <defs transform="translate(0, 102.361) translate(-20.9432) translate(0, -2.79918) translate(-5.68434e-14) translate(-0.5272)" fill="#ffffff">
      <rect fill="#ffffff" height="635.22" width="1129.28" y="-18.55" x="-143.26" id="SVGID_3_"/>
     </defs>
     <clipPath transform="translate(0, 102.361) translate(-20.9432) translate(0, -2.79918) translate(-5.68434e-14) translate(-0.5272)" fill="#ffffff" id="SVGID_4_">
      <use x="-21.47042" y="99.56166" fill="#ffffff" id="svg_5" xlink:href="#SVGID_3_"/>
     </clipPath>
     <g id="svg_6" clip-path="url(#SVGID_4_)" class="st1" transform="matrix(1, 0, 0, 1, 0, -197)">
      <g id="svg_7">
       <defs transform="translate(0, 102.361) translate(-20.9432) translate(0, -2.79918) translate(-5.68434e-14) translate(-0.5272)" fill="#ffffff">
        <rect fill="#ffffff" height="635.22" width="1129.28" y="178.45" x="-143.26" id="SVGID_5_"/>
       </defs>
       <clipPath transform="translate(0, 102.361) translate(-20.9432) translate(0, -2.79918) translate(-5.68434e-14) translate(-0.5272)" fill="#ffffff" id="SVGID_6_">
        <use x="-21.47042" y="99.56166" fill="#ffffff" id="svg_8" xlink:href="#SVGID_5_"/>
       </clipPath>
       <g id="svg_9" clip-path="url(#SVGID_6_)" display="none" class="st2">
        <g id="svg_10" display="inline" class="st3">
         <defs transform="translate(0, 102.361) translate(-20.9432) translate(0, -2.79918) translate(-5.68434e-14) translate(-0.5272)" fill="#ffffff">
          <rect fill="#ffffff" height="635.22" width="1129.28" y="178.45" x="-143.26" id="SVGID_7_"/>
         </defs>
         <clipPath transform="translate(0, 102.361) translate(-20.9432) translate(0, -2.79918) translate(-5.68434e-14) translate(-0.5272)" fill="#ffffff" id="SVGID_8_">
          <use x="-21.47042" y="99.56166" fill="#ffffff" id="svg_11" xlink:href="#SVGID_7_"/>
         </clipPath>
         <g id="svg_12" clip-path="url(#SVGID_8_)" class="st4">
          <g id="svg_13" transform="matrix(2.94, 0, 0, 2.94, 389.17, 333.26)">
           <g id="svg_14" transform="matrix(1, 0, 0, 1, 79.335, 71.132)">
            <path id="svg_15" fill="#ffffff" d="m-143.22286,18.5845" class="st5"/>
           </g>
           <g id="svg_16" transform="matrix(1, 0, 0, 1, 273.46, 70.89)">
            <path id="svg_17" fill="#ffffff" d="m-162.76286,12.5145c3.68,-0.08 6.29,-1.21 6.93,-4.71c0.38,-2.08 -0.84,-3.41 -3.21,-3.52c0,0 -6.87,-0.36 -14.78,-0.71c0,0 -11.76,-0.48 -15.04,-0.55c-2.93,-0.07 -5.78,-0.09 -7.76,-0.06c-1.85,0.03 -2.71,0.98 -3.09,2.5c-0.38,1.52 -0.69,3.68 -0.81,5.93c-0.09,1.7 1.76,2.51 3.67,2.44c0,0 2.35,-0.11 6.02,-0.28c4.16,-0.16 15.49,-0.66 15.49,-0.66c3.96,-0.15 8.38,-0.28 12.58,-0.38z" class="st5"/>
           </g>
          </g>
         </g>
        </g>
        <g id="svg_18" display="inline" class="st3">
         <defs transform="translate(0, 102.361) translate(-20.9432) translate(0, -2.79918) translate(-5.68434e-14) translate(-0.5272)" fill="#ffffff">
          <rect fill="#ffffff" height="635.22" width="1129.28" y="178.45" x="-143.26" id="SVGID_9_"/>
         </defs>
         <clipPath transform="translate(0, 102.361) translate(-20.9432) translate(0, -2.79918) translate(-5.68434e-14) translate(-0.5272)" fill="#ffffff" id="SVGID_10_">
          <use x="-21.47042" y="99.56166" fill="#ffffff" id="svg_19" xlink:href="#SVGID_9_"/>
         </clipPath>
         <g id="svg_20" clip-path="url(#SVGID_10_)" class="st6">
          <g id="svg_21" transform="matrix(2.94, 0, 0, 2.94, 389.17, 333.26)">
           <g id="svg_22" transform="matrix(1, 0, 0, 1, 79.335, 71.132)">
            <path id="svg_23" fill="#ffffff" d="m-143.22286,18.5845" class="st5"/>
           </g>
           <g id="svg_24" transform="matrix(1, 0, 0, 1, 273.46, 70.89)">
            <path id="svg_25" fill="#ffffff" d="m-173.82286,3.5745c0,0 1.6,-8.78 2.38,-12.35c0.38,-1.76 -0.54,-3.49 -2.76,-4.03c-2.2,-0.53 -7.25,-0.57 -8.94,-0.38c-1.42,0.16 -2.79,1 -3.11,2.47c-0.8,3.67 -1.63,8.08 -2.62,13.74c-0.52,2.62 -1.52,7.32 -1.98,10.52c-0.68,3.21 -1.98,11.84 -2.56,17.2c-0.68,6.4 -1.08,10.2 -0.63,15.68c1.3,9.92 6.48,13.85 14.9,13.85c7.73,0 15.18,-4.9 20.45,-13.78c1.05,-1.77 1.82,-3.32 1.15,-4.09c-1.53,-1.76 -4.45,-2.67 -5.25,-1.21c-3.48,6.36 -7.21,8.93 -11.28,8.93c-3.22,0 -5.82,-1.91 -5.82,-7.49c0,-8.03 4.52,-29.74 4.52,-29.74c0.59,-2.45 1.19,-5.85 1.55,-9.32z" class="st5"/>
           </g>
          </g>
         </g>
        </g>
        <g id="svg_26" display="inline" class="st3">
         <defs transform="translate(0, 102.361) translate(-20.9432) translate(0, -2.79918) translate(-5.68434e-14) translate(-0.5272)" fill="#ffffff">
          <rect fill="#ffffff" height="635.22" width="1129.28" y="178.45" x="-143.26" id="SVGID_11_"/>
         </defs>
         <clipPath transform="translate(0, 102.361) translate(-20.9432) translate(0, -2.79918) translate(-5.68434e-14) translate(-0.5272)" fill="#ffffff" id="SVGID_12_">
          <use x="-21.47042" y="99.56166" fill="#ffffff" id="svg_27" xlink:href="#SVGID_11_"/>
         </clipPath>
         <g id="svg_28" clip-path="url(#SVGID_12_)" class="st7">
          <g id="svg_29" transform="matrix(2.94, 0, 0, 2.94, 389.17, 333.26)">
           <g id="svg_30" transform="matrix(1, 0, 0, 1, 79.335, 71.132)">
            <path id="svg_31" fill="#ffffff" d="m-143.22286,18.5845" class="st5"/>
           </g>
           <g id="svg_32" transform="matrix(1, 0, 0, 1, 273.46, 70.89)">
            <path id="svg_33" fill="#ffffff" d="m-190.84286,13.5545c-0.68,3.21 -2.04,11.84 -2.56,17.2c-3.32,11.15 -10.2,19.37 -16.13,19.37c-3.63,0 -5.8,-2.16 -5.8,-8.7c0,-9.05 2.08,-20.5 5.11,-31.98c2.03,-10.51 4.23,-20.81 4.74,-26.43c0.18,-1.94 1.41,-4.63 -0.93,-5.1c-4.22,-0.84 -8.23,-0.68 -11.04,0.19c-2.51,0.78 -3.02,3.42 -3.33,4.83c-1.45,6.77 -3.82,18.76 -5.49,29.28c-0.53,3.62 -1.43,8.02 -2.18,12.34c0,0 -2.38,12.01 -2.38,19.06c0,10.69 4.59,16.65 15.36,16.65c8.86,0 16.6,-6.25 21.43,-13.85c4.55,-7.58 11.48,-33.14 11.48,-33.14c3.98,-0.13 -11.96,0.46 -8.28,0.28z" class="st5"/>
           </g>
          </g>
          <g id="svg_34" transform="matrix(2.94, 0, 0, 2.94, 389.17, 333.26)">
           <g id="svg_35" transform="matrix(1, 0, 0, 1, 79.335, 71.132)">
            <path id="svg_36" fill="#ffffff" d="m-143.22286,18.5845" class="st5"/>
           </g>
           <g id="svg_37" transform="matrix(1, 0, 0, 1, 273.46, 70.89)">
            <path id="svg_38" fill="#ffffff" d="m-180.50286,3.5345c0,0 0.38,-8.73 1.16,-12.31c0.38,-1.76 -2.1,-4.6 -3.79,-4.41c-1.42,0.16 -2.79,1 -3.11,2.47c-0.8,3.67 -2.62,13.74 -2.62,13.74l-1.98,10.52c0,0 -2.04,11.84 -2.56,17.2c-3.32,11.15 -10.2,19.37 -16.13,19.37c-3.63,0 -5.8,-2.16 -5.8,-8.7c0,-9.05 -15.49,-4.85 -15.49,2.2c0,10.69 4.59,16.65 15.36,16.65c8.86,0 16.6,-6.25 21.43,-13.85c7.43,-13.92 11.65,-32.37 11.65,-32.37l1.88,-10.51z" class="st5"/>
           </g>
          </g>
         </g>
        </g>
        <g id="svg_39" display="inline" class="st3">
         <defs transform="translate(0, 102.361) translate(-20.9432) translate(0, -2.79918) translate(-5.68434e-14) translate(-0.5272)" fill="#ffffff">
          <rect fill="#ffffff" height="635.22" width="1129.28" y="178.45" x="-143.26" id="SVGID_13_"/>
         </defs>
         <clipPath transform="translate(0, 102.361) translate(-20.9432) translate(0, -2.79918) translate(-5.68434e-14) translate(-0.5272)" fill="#ffffff" id="SVGID_14_">
          <use x="-21.47042" y="99.56166" fill="#ffffff" id="svg_40" xlink:href="#SVGID_13_"/>
         </clipPath>
         <g id="svg_41" clip-path="url(#SVGID_14_)" class="st8">
          <defs transform="translate(0, 102.361) translate(-20.9432) translate(0, -2.79918) translate(-5.68434e-14) translate(-0.5272)" fill="#ffffff">
           <filter fill="#ffffff" height="157.5" width="393.55" y="375.6" x="222.82" filterUnits="userSpaceOnUse" id="Adobe_OpacityMaskFilter"/>
          </defs>
          <mask fill="#ffffff" id="__lottie_element_83_1_" height="157.5" width="393.55" y="375.6" x="222.82" maskUnits="userSpaceOnUse">
           <rect id="svg_42" filter="url(#Adobe_OpacityMaskFilter)" fill="#ffffff" height="635.22" width="1129.28" class="st9" y="294.32" x="-143.26"/>
           <path fill="#ffffff" id="svg_43" d="m504.31,537.82c-32.94,-15.88 -109.99,32.94 -108.22,32.94s97.64,21.76 107.05,21.17c9.41,-0.58 34.11,-38.23 1.17,-54.11"/>
          </mask>
          <g id="svg_44" mask="url(#__lottie_element_83_1_)" class="st10">
           <g id="svg_45" transform="matrix(2.94, 0, 0, 2.94, 389.17, 333.26)">
            <g id="svg_46" transform="matrix(1, 0, 0, 1, 79.335, 71.132)">
             <path id="svg_47" fill="#ffffff" d="m-143.22286,18.5845" class="st5"/>
            </g>
            <g id="svg_48" transform="matrix(1, 0, 0, 1, 273.46, 70.89)">
             <path id="svg_49" fill="#ffffff" d="m-215.02286,5.4545c4.28,-10.29 0.38,-28.21 -2.43,-27.33c-2.51,0.78 -0.52,17.63 -0.83,19.04c-1.45,6.77 -2.41,7.29 -7.99,15.08c-3.69,4.47 -7.93,7.61 -12.53,8.39c-12.91,1.33 -14.81,-4.57 -9.98,-12.91c7.53,-13 -2.44,-8.47 -7.35,0.05c-1.5,2.6 -1.89,5.6 -1.98,8.54c-0.11,3.68 0.49,8.35 5.3,11.79c5.21,3.73 9.39,2.99 13.31,2.23c4.21,-0.85 7.87,-2.91 11.03,-5.75c0.02,-0.01 10.42,-7.66 13.45,-19.13z" class="st5"/>
            </g>
           </g>
           <g id="svg_50" transform="matrix(2.94, 0, 0, 2.94, 389.17, 333.26)">
            <g id="svg_51" transform="matrix(1, 0, 0, 1, 79.335, 71.132)">
             <path id="svg_52" fill="#ffffff" d="m-143.22286,18.5845" class="st5"/>
            </g>
            <g id="svg_53" transform="matrix(1, 0, 0, 1, 273.46, 70.89)">
             <path id="svg_54" fill="#ffffff" d="m-210.22286,9.4545c4.28,-10.29 6.74,-21.74 6.74,-26.93c0,-1.95 -0.59,-4.13 -2.93,-4.6c-4.22,-0.84 -8.23,-0.68 -11.04,0.19c-2.51,0.78 0.58,5.12 0.27,6.53c-1.45,6.78 3.93,36.29 6.96,24.81z" class="st5"/>
            </g>
           </g>
          </g>
         </g>
        </g>
        <g id="svg_55" display="inline" class="st3">
         <defs transform="translate(0, 102.361) translate(-20.9432) translate(0, -2.79918) translate(-5.68434e-14) translate(-0.5272)" fill="#ffffff">
          <rect fill="#ffffff" height="635.22" width="1129.28" y="178.45" x="-143.26" id="SVGID_15_"/>
         </defs>
         <clipPath transform="translate(0, 102.361) translate(-20.9432) translate(0, -2.79918) translate(-5.68434e-14) translate(-0.5272)" fill="#ffffff" id="SVGID_16_">
          <use x="-21.47042" y="99.56166" fill="#ffffff" id="svg_56" xlink:href="#SVGID_15_"/>
         </clipPath>
         <g id="svg_57" clip-path="url(#SVGID_16_)" class="st11">
          <g id="svg_58" transform="matrix(2.94, 0, 0, 2.94, 389.17, 333.26)">
           <g id="svg_59" transform="matrix(1, 0, 0, 1, 79.335, 71.132)">
            <path id="svg_60" fill="#ffffff" d="m-143.22286,18.5845" class="st5"/>
           </g>
           <g id="svg_61" transform="matrix(1, 0, 0, 1, 273.46, 70.89)">
            <path id="svg_62" fill="#ffffff" d="m-267.37286,51.6445c-4.51,0 -7.53,-3.89 -7.53,-11.6c0,-14.8 5.27,-30.71 14.72,-30.71c1.06,0 2.01,0.14 2.84,0.47c2.98,1.04 4.98,11.34 4.01,18.01c-2.04,12.99 -7.79,23.83 -14.04,23.83zm28.58,-31.03c-0.71,-13.93 -8.82,-19.91 -19.98,-19.91c-19.6,0 -32.1,17.47 -32.1,37.07c0,15.88 8.66,22.5 21.28,22.5c14.89,0 25.98,-10.57 30.12,-29.95c0.57,-3.42 0.67,-5.87 0.68,-9.71z" class="st5"/>
           </g>
          </g>
         </g>
        </g>
        <g id="svg_63" display="inline" class="st3">
         <defs transform="translate(0, 102.361) translate(-20.9432) translate(0, -2.79918) translate(-5.68434e-14) translate(-0.5272)" fill="#ffffff">
          <rect fill="#ffffff" height="635.22" width="1129.28" y="178.45" x="-143.26" id="SVGID_17_"/>
         </defs>
         <clipPath transform="translate(0, 102.361) translate(-20.9432) translate(0, -2.79918) translate(-5.68434e-14) translate(-0.5272)" fill="#ffffff" id="SVGID_18_">
          <use x="-21.47042" y="99.56166" fill="#ffffff" id="svg_64" xlink:href="#SVGID_17_"/>
         </clipPath>
         <g id="svg_65" clip-path="url(#SVGID_18_)" class="st12">
          <g id="svg_66" transform="matrix(2.94, 0, 0, 2.94, 389.17, 333.26)">
           <g id="svg_67" transform="matrix(1, 0, 0, 1, 79.335, 71.132)">
            <path id="svg_68" fill="#ffffff" d="m-104.01286,-22.8655c-2.61,0 -4.92,0.13 -6.06,0.25c-2.28,0.24 -3.05,2.4 -2.89,4.53c2.4,30.87 -4.39,66.8 -12.13,66.8c-5.76,0 -7.36,-16.79 -7.36,-31.73c0,-8.83 0.5,-17.33 0.72,-24.84c0.08,-2.79 -0.94,-3.31 -2.95,-3.56c-3.05,-0.37 -5.24,-0.37 -8.27,0.3c-2.32,0.51 -2.86,2.41 -5.29,8.2c-12.13,28.83 -23.83,51.99 -23.83,51.99c-3.09,-23.21 0.88,-45.73 4.26,-62.17c0.47,-2.26 -0.61,-3.6 -2.47,-3.57c-3.5,0.06 -8.88,0.17 -11.3,1.76c-2.27,1.49 -3.12,3.08 -3.77,6.37c-3.75,18.82 -6.2,42.43 -2.42,60.69c0.82,3.95 1.73,4.88 3.4,5.91c1.67,1.03 8.82,1.96 11.59,1.96c3.15,0 6.03,-0.85 8.43,-4.96c5.08,-8.71 9.15,-17.41 16.83,-34.16c0.79,21.83 3.87,38.96 19.21,38.96c20.33,0 33.45,-50.79 33.45,-75.22c-0.01,-6.45 -3.21,-7.51 -9.15,-7.51z" class="st5"/>
           </g>
          </g>
         </g>
        </g>
       </g>
      </g>
      <g id="svg_69">
       <defs transform="translate(0, 102.361) translate(-20.9432) translate(0, -2.79918) translate(-5.68434e-14) translate(-0.5272)" fill="#ffffff">
        <rect fill="#ffffff" height="635.22" width="1129.28" y="178.45" x="-143.26" id="SVGID_19_"/>
       </defs>
       <clipPath transform="translate(0, 102.361) translate(-20.9432) translate(0, -2.79918) translate(-5.68434e-14) translate(-0.5272)" fill="#ffffff" id="SVGID_20_">
        <use x="-21.47042" y="99.56166" fill="#ffffff" id="svg_70" xlink:href="#SVGID_19_"/>
       </clipPath>
       <g id="svg_71" clip-path="url(#SVGID_20_)" class="st13">
        <g id="svg_72">
         <defs transform="translate(0, 102.361) translate(-20.9432) translate(0, -2.79918) translate(-5.68434e-14) translate(-0.5272)" fill="#ffffff">
          <rect fill="#ffffff" height="635.22" width="1129.28" y="178.45" x="-143.26" id="SVGID_21_"/>
         </defs>
         <clipPath transform="translate(0, 102.361) translate(-20.9432) translate(0, -2.79918) translate(-5.68434e-14) translate(-0.5272)" fill="#ffffff" id="SVGID_22_">
          <use x="-21.47042" y="99.56166" fill="#ffffff" id="svg_73" xlink:href="#SVGID_21_"/>
         </clipPath>
         <g id="svg_74" clip-path="url(#SVGID_22_)" class="st14">
          <g id="svg_75" transform="matrix(2.94, 0, 0, 2.94, 389.17, 333.26)">
           <g id="svg_76" transform="matrix(1, 0, 0, 1, 79.335, 71.132)">
            <path id="svg_77" fill="#ffffff" d="m-143.22286,18.5845" class="st5"/>
           </g>
           <g id="svg_78" transform="matrix(1, 0, 0, 1, 273.46, 70.89)">
            <path id="svg_79" fill="#ffffff" d="m-162.76286,12.5145c3.68,-0.08 6.29,-1.21 6.93,-4.71c0.38,-2.08 -0.84,-3.41 -3.21,-3.52c0,0 -6.87,-0.36 -14.78,-0.71c0,0 -11.76,-0.48 -15.04,-0.55c-2.93,-0.07 -5.78,-0.09 -7.76,-0.06c-1.85,0.03 -2.71,0.98 -3.09,2.5c-0.38,1.52 -0.69,3.68 -0.81,5.93c-0.09,1.7 1.76,2.51 3.67,2.44c0,0 2.35,-0.11 6.02,-0.28c4.16,-0.16 15.49,-0.66 15.49,-0.66c3.96,-0.15 8.38,-0.28 12.58,-0.38z" class="st5"/>
           </g>
          </g>
         </g>
        </g>
        <g id="svg_80">
         <defs transform="translate(0, 102.361) translate(-20.9432) translate(0, -2.79918) translate(-5.68434e-14) translate(-0.5272)" fill="#ffffff">
          <rect fill="#ffffff" height="635.22" width="1129.28" y="178.45" x="-143.26" id="SVGID_23_"/>
         </defs>
         <clipPath transform="translate(0, 102.361) translate(-20.9432) translate(0, -2.79918) translate(-5.68434e-14) translate(-0.5272)" fill="#ffffff" id="SVGID_24_">
          <use x="-21.47042" y="99.56166" fill="#ffffff" id="svg_81" xlink:href="#SVGID_23_"/>
         </clipPath>
         <g id="svg_82" clip-path="url(#SVGID_24_)" class="st15">
          <g id="svg_83" transform="matrix(2.94, 0, 0, 2.94, 389.17, 333.26)">
           <g id="svg_84" transform="matrix(1, 0, 0, 1, 79.335, 71.132)">
            <path id="svg_85" fill="#ffffff" d="m-143.22286,18.5845" class="st5"/>
           </g>
           <g id="svg_86" transform="matrix(1, 0, 0, 1, 273.46, 70.89)">
            <path id="svg_87" fill="#ffffff" d="m-173.82286,3.5745c0,0 1.6,-8.78 2.38,-12.35c0.38,-1.76 -0.54,-3.49 -2.76,-4.03c-2.2,-0.53 -7.25,-0.57 -8.94,-0.38c-1.42,0.16 -2.79,1 -3.11,2.47c-0.8,3.67 -1.63,8.08 -2.62,13.74c-0.52,2.62 -1.52,7.32 -1.98,10.52c-0.68,3.21 -1.98,11.84 -2.56,17.2c-0.68,6.4 -1.08,10.2 -0.63,15.68c1.3,9.92 6.48,13.85 14.9,13.85c7.73,0 15.18,-4.9 20.45,-13.78c1.05,-1.77 1.82,-3.32 1.15,-4.09c-1.53,-1.76 -4.45,-2.67 -5.25,-1.21c-3.48,6.36 -7.21,8.93 -11.28,8.93c-3.22,0 -5.82,-1.91 -5.82,-7.49c0,-8.03 4.52,-29.74 4.52,-29.74c0.59,-2.45 1.19,-5.85 1.55,-9.32z" class="st5"/>
           </g>
          </g>
         </g>
        </g>
        <g id="svg_88">
         <defs transform="translate(0, 102.361) translate(-20.9432) translate(0, -2.79918) translate(-5.68434e-14) translate(-0.5272)" fill="#ffffff">
          <rect fill="#ffffff" height="635.22" width="1129.28" y="178.45" x="-143.26" id="SVGID_25_"/>
         </defs>
         <clipPath transform="translate(0, 102.361) translate(-20.9432) translate(0, -2.79918) translate(-5.68434e-14) translate(-0.5272)" fill="#ffffff" id="SVGID_26_">
          <use x="-21.47042" y="99.56166" fill="#ffffff" id="svg_89" xlink:href="#SVGID_25_"/>
         </clipPath>
         <g id="svg_90" clip-path="url(#SVGID_26_)" class="st16">
          <g id="svg_91" transform="matrix(2.94, 0, 0, 2.94, 389.17, 333.26)">
           <g id="svg_92" transform="matrix(1, 0, 0, 1, 79.335, 71.132)">
            <path id="svg_93" fill="#ffffff" d="m-143.22286,18.5845" class="st5"/>
           </g>
           <g id="svg_94" transform="matrix(1, 0, 0, 1, 273.46, 70.89)">
            <path id="svg_95" fill="#ffffff" d="m-190.84286,13.5545c-0.68,3.21 -2.04,11.84 -2.56,17.2c-3.32,11.15 -10.2,19.37 -16.13,19.37c-3.63,0 -5.8,-2.16 -5.8,-8.7c0,-9.05 2.08,-20.5 5.11,-31.98c2.03,-10.51 4.23,-20.81 4.74,-26.43c0.18,-1.94 1.41,-4.63 -0.93,-5.1c-4.22,-0.84 -8.23,-0.68 -11.04,0.19c-2.51,0.78 -3.02,3.42 -3.33,4.83c-1.45,6.77 -3.82,18.76 -5.49,29.28c-0.53,3.62 -1.43,8.02 -2.18,12.34c0,0 -2.38,12.01 -2.38,19.06c0,10.69 4.59,16.65 15.36,16.65c8.86,0 16.6,-6.25 21.43,-13.85c4.55,-7.58 11.48,-33.14 11.48,-33.14c3.98,-0.13 -11.96,0.46 -8.28,0.28z" class="st5"/>
           </g>
          </g>
          <g id="svg_96" transform="matrix(2.94, 0, 0, 2.94, 389.17, 333.26)">
           <g id="svg_97" transform="matrix(1, 0, 0, 1, 79.335, 71.132)">
            <path id="svg_98" fill="#ffffff" d="m-143.22286,18.5845" class="st5"/>
           </g>
           <g id="svg_99" transform="matrix(1, 0, 0, 1, 273.46, 70.89)">
            <path id="svg_100" fill="#ffffff" d="m-180.50286,3.5345c0,0 0.38,-8.73 1.16,-12.31c0.38,-1.76 -2.1,-4.6 -3.79,-4.41c-1.42,0.16 -2.79,1 -3.11,2.47c-0.8,3.67 -2.62,13.74 -2.62,13.74l-1.98,10.52c0,0 -2.04,11.84 -2.56,17.2c-3.32,11.15 -10.2,19.37 -16.13,19.37c-3.63,0 -5.8,-2.16 -5.8,-8.7c0,-9.05 -15.49,-4.85 -15.49,2.2c0,10.69 4.59,16.65 15.36,16.65c8.86,0 16.6,-6.25 21.43,-13.85c7.43,-13.92 11.65,-32.37 11.65,-32.37l1.88,-10.51z" class="st5"/>
           </g>
          </g>
         </g>
        </g>
        <g id="svg_101">
         <defs transform="translate(0, 102.361) translate(-20.9432) translate(0, -2.79918) translate(-5.68434e-14) translate(-0.5272)" fill="#ffffff">
          <rect fill="#ffffff" height="635.22" width="1129.28" y="178.45" x="-143.26" id="SVGID_27_"/>
         </defs>
         <clipPath transform="translate(0, 102.361) translate(-20.9432) translate(0, -2.79918) translate(-5.68434e-14) translate(-0.5272)" fill="#ffffff" id="SVGID_28_">
          <use x="-21.47042" y="99.56166" fill="#ffffff" id="svg_102" xlink:href="#SVGID_27_"/>
         </clipPath>
         <g id="svg_103" clip-path="url(#SVGID_28_)" class="st17">
          <defs transform="translate(0, 102.361) translate(-20.9432) translate(0, -2.79918) translate(-5.68434e-14) translate(-0.5272)" fill="#ffffff">
           <filter fill="#ffffff" height="157.5" width="393.55" y="375.6" x="222.82" filterUnits="userSpaceOnUse" id="Adobe_OpacityMaskFilter_1_"/>
          </defs>
          <mask fill="#ffffff" id="__lottie_element_25_1_" height="157.5" width="393.55" y="375.6" x="222.82" maskUnits="userSpaceOnUse">
           <rect id="svg_104" filter="url(#Adobe_OpacityMaskFilter_1_)" fill="#ffffff" height="635.22" width="1129.28" class="st18" y="294.32" x="-143.26"/>
           <path fill="#ffffff" id="svg_105" d="m504.31,537.82c-32.94,-15.88 -109.99,32.94 -108.22,32.94s97.64,21.76 107.05,21.17c9.41,-0.58 34.11,-38.23 1.17,-54.11"/>
          </mask>
          <g id="svg_106" mask="url(#__lottie_element_25_1_)" class="st19">
           <g id="svg_107" transform="matrix(2.94, 0, 0, 2.94, 389.17, 333.26)">
            <g id="svg_108" transform="matrix(1, 0, 0, 1, 79.335, 71.132)">
             <path id="svg_109" fill="#ffffff" d="m-143.22286,18.5845" class="st5"/>
            </g>
            <g id="svg_110" transform="matrix(1, 0, 0, 1, 273.46, 70.89)">
             <path id="svg_111" fill="#ffffff" d="m-215.02286,5.4545c4.28,-10.29 0.38,-28.21 -2.43,-27.33c-2.51,0.78 -0.52,17.63 -0.83,19.04c-1.45,6.77 -2.41,7.29 -7.99,15.08c-3.69,4.47 -7.93,7.61 -12.53,8.39c-12.91,1.33 -14.81,-4.57 -9.98,-12.91c7.53,-13 -2.44,-8.47 -7.35,0.05c-1.5,2.6 -1.89,5.6 -1.98,8.54c-0.11,3.68 0.49,8.35 5.3,11.79c5.21,3.73 9.39,2.99 13.31,2.23c4.21,-0.85 7.87,-2.91 11.03,-5.75c0.02,-0.01 10.42,-7.66 13.45,-19.13z" class="st5"/>
            </g>
           </g>
           <g id="svg_112" transform="matrix(2.94, 0, 0, 2.94, 389.17, 333.26)">
            <g id="svg_113" transform="matrix(1, 0, 0, 1, 79.335, 71.132)">
             <path id="svg_114" fill="#ffffff" d="m-143.22286,18.5845" class="st5"/>
            </g>
            <g id="svg_115" transform="matrix(1, 0, 0, 1, 273.46, 70.89)">
             <path id="svg_116" fill="#ffffff" d="m-210.22286,9.4545c4.28,-10.29 6.74,-21.74 6.74,-26.93c0,-1.95 -0.59,-4.13 -2.93,-4.6c-4.22,-0.84 -8.23,-0.68 -11.04,0.19c-2.51,0.78 0.58,5.12 0.27,6.53c-1.45,6.78 3.93,36.29 6.96,24.81z" class="st5"/>
            </g>
           </g>
          </g>
         </g>
        </g>
        <g id="svg_117">
         <defs transform="translate(0, 102.361) translate(-20.9432) translate(0, -2.79918) translate(-5.68434e-14) translate(-0.5272)" fill="#ffffff">
          <rect fill="#ffffff" height="635.22" width="1129.28" y="178.45" x="-143.26" id="SVGID_29_"/>
         </defs>
         <clipPath transform="translate(0, 102.361) translate(-20.9432) translate(0, -2.79918) translate(-5.68434e-14) translate(-0.5272)" fill="#ffffff" id="SVGID_30_">
          <use x="-21.47042" y="99.56166" fill="#ffffff" id="svg_118" xlink:href="#SVGID_29_"/>
         </clipPath>
         <g id="svg_119" clip-path="url(#SVGID_30_)" class="st20">
          <g id="svg_120" transform="matrix(2.94, 0, 0, 2.94, 389.17, 333.26)">
           <g id="svg_121" transform="matrix(1, 0, 0, 1, 79.335, 71.132)">
            <path id="svg_122" fill="#ffffff" d="m-143.22286,18.5845" class="st5"/>
           </g>
           <g id="svg_123" transform="matrix(1, 0, 0, 1, 273.46, 70.89)">
            <path id="svg_124" fill="#ffffff" d="m-267.37286,51.6445c-4.51,0 -7.53,-3.89 -7.53,-11.6c0,-14.8 5.27,-30.71 14.72,-30.71c1.06,0 2.01,0.14 2.84,0.47c2.98,1.04 4.98,11.34 4.01,18.01c-2.04,12.99 -7.79,23.83 -14.04,23.83zm28.58,-31.03c-0.71,-13.93 -8.82,-19.91 -19.98,-19.91c-19.6,0 -32.1,17.47 -32.1,37.07c0,15.88 8.66,22.5 21.28,22.5c14.89,0 25.98,-10.57 30.12,-29.95c0.57,-3.42 0.67,-5.87 0.68,-9.71z" class="st5"/>
           </g>
          </g>
         </g>
        </g>
        <g id="svg_125">
         <defs transform="translate(0, 102.361) translate(-20.9432) translate(0, -2.79918) translate(-5.68434e-14) translate(-0.5272)" fill="#ffffff">
          <rect fill="#ffffff" height="635.22" width="1129.28" y="178.45" x="-143.26" id="SVGID_31_"/>
         </defs>
         <clipPath transform="translate(0, 102.361) translate(-20.9432) translate(0, -2.79918) translate(-5.68434e-14) translate(-0.5272)" fill="#ffffff" id="SVGID_32_">
          <use x="-21.47042" y="99.56166" fill="#ffffff" id="svg_126" xlink:href="#SVGID_31_"/>
         </clipPath>
         <g id="svg_127" clip-path="url(#SVGID_32_)" class="st21">
          <g id="svg_128" transform="matrix(2.94, 0, 0, 2.94, 389.17, 333.26)">
           <g id="svg_129" transform="matrix(1, 0, 0, 1, 79.335, 71.132)">
            <path id="svg_130" fill="#ffffff" d="m-104.01286,-22.8655c-2.61,0 -4.92,0.13 -6.06,0.25c-2.28,0.24 -3.05,2.4 -2.89,4.53c2.4,30.87 -4.39,66.8 -12.13,66.8c-5.76,0 -7.36,-16.79 -7.36,-31.73c0,-8.83 0.5,-17.33 0.72,-24.84c0.08,-2.79 -0.94,-3.31 -2.95,-3.56c-3.05,-0.37 -5.24,-0.37 -8.27,0.3c-2.32,0.51 -2.86,2.41 -5.29,8.2c-12.13,28.83 -23.83,51.99 -23.83,51.99c-3.09,-23.21 0.88,-45.73 4.26,-62.17c0.47,-2.26 -0.61,-3.6 -2.47,-3.57c-3.5,0.06 -8.88,0.17 -11.3,1.76c-2.27,1.49 -3.12,3.08 -3.77,6.37c-3.75,18.82 -6.2,42.43 -2.42,60.69c0.82,3.95 1.73,4.88 3.4,5.91c1.67,1.03 8.82,1.96 11.59,1.96c3.15,0 6.03,-0.85 8.43,-4.96c5.08,-8.71 9.15,-17.41 16.83,-34.16c0.79,21.83 3.87,38.96 19.21,38.96c20.33,0 33.45,-50.79 33.45,-75.22c-0.01,-6.45 -3.21,-7.51 -9.15,-7.51z" class="st5"/>
           </g>
          </g>
          <g id="svg_131" display="none" class="st22" transform="matrix(2.94, 0, 0, 2.94, 389.17, 333.26)">
           <g id="svg_132" display="inline" class="st3" transform="matrix(1, 0, 0, 1, 79.335, 71.132)">
            <path id="svg_133" fill="#ffffff" d="m-104.01286,-22.8655c-2.61,0 -4.92,0.13 -6.06,0.25c-2.28,0.24 -3.05,2.4 -2.89,4.53c2.4,30.87 -4.39,66.8 -12.13,66.8c-5.76,0 -7.36,-16.79 -7.36,-31.73c0,-8.83 0.5,-17.33 0.72,-24.84c0.08,-2.79 -0.94,-3.31 -2.95,-3.56c-3.05,-0.37 -5.24,-0.37 -8.27,0.3c-2.32,0.51 -2.86,2.41 -5.29,8.2c-12.13,28.83 -23.83,51.99 -23.83,51.99c-2.8,-21.01 0.19,-41.44 3.28,-57.32c0.33,-1.67 -17.12,0.84 -18.08,7.98c-2.31,17.22 -4.16,36.76 -0.92,52.43c0.82,3.95 1.73,4.88 3.4,5.91c1.67,1.03 8.82,1.96 11.59,1.96c3.15,0 6.03,-0.85 8.43,-4.96c5.08,-8.71 9.15,-17.41 16.83,-34.16c0.79,21.83 3.87,38.96 19.21,38.96c20.33,0 33.45,-50.79 33.45,-75.22c0.01,-6.46 -3.19,-7.52 -9.13,-7.52z" class="st5"/>
           </g>
          </g>
          <g id="svg_134" display="none" class="st22" transform="matrix(2.94, 0, 0, 2.94, 389.17, 333.26)">
           <g id="svg_135" display="inline" class="st3" transform="matrix(1, 0, 0, 1, 79.335, 71.132)">
            <path id="svg_136" fill="#ffffff" d="m-104.01286,-22.8655c-2.61,0 -4.92,0.13 -6.06,0.25c-2.28,0.24 -3.05,2.4 -2.89,4.53c2.4,30.87 -4.39,66.8 -12.13,66.8c-5.76,0 -7.36,-16.79 -7.36,-31.73c0,-8.83 0.5,-17.33 0.72,-24.84c0.08,-2.79 -0.94,-3.31 -2.95,-3.56c-3.05,-0.37 -5.24,-0.37 -8.27,0.3c-2.32,0.51 -2.86,2.41 -5.29,8.2c-12.13,28.83 -23.83,51.99 -23.83,51.99c-2.07,-15.55 -0.98,-30.79 0.99,-44.09c0.69,-4.67 -16.73,2.51 -17.57,10.22c-0.36,3.31 -1.43,25.85 0.87,36.96c0.82,3.95 1.73,4.88 3.4,5.91c1.67,1.03 8.82,1.96 11.59,1.96c3.15,0 6.03,-0.85 8.43,-4.96c5.08,-8.71 9.15,-17.41 16.83,-34.16c0.79,21.83 3.87,38.96 19.21,38.96c20.33,0 33.45,-50.79 33.45,-75.22c0,-6.46 -3.2,-7.52 -9.14,-7.52z" class="st5"/>
           </g>
          </g>
         </g>
        </g>
       </g>
      </g>
     </g>
    </g>
   </g>
  </g>
 </g>
</svg>